<svg xmlns="http://www.w3.org/2000/svg" viewBox="0 0 234.95 144.43"><g id="Layer_2" data-name="Layer 2"><g id="Layer_1-2" data-name="Layer 1"><g style="opacity:0.3"><path d="M.75,70.09l0-44.41Q.81,14,7.8,7T26.42,0Q38,0,44.13,6.83t6.12,19.6l0,43.7-20.35,0,0-43.7c0-4.17-1.48-6.26-4.45-6.26s-4.31,2.08-4.32,6.26l0,43.69Z" style="fill:#fff"/><path d="M106.83,48.24l-28.42,0a13.57,13.57,0,0,1-.64-4,13.89,13.89,0,0,1,.9-4.91h9.52q-1-5.57-6.26-5.57a6.8,6.8,0,0,0-5.71,3A12.49,12.49,0,0,0,74,44.4a13.27,13.27,0,0,0,2.12,7.87,6.56,6.56,0,0,0,5.58,3q2.81,0,5.42-2.8L97.79,65.32A26.26,26.26,0,0,1,81.2,71.17a25.6,25.6,0,0,1-18.69-7.49A25,25,0,0,1,55,45.18a25.08,25.08,0,0,1,7.66-18.53A25.64,25.64,0,0,1,81.4,19.1,25.24,25.24,0,0,1,107,44.73C107,45.46,107,46.63,106.83,48.24Z" style="fill:#fff"/><path d="M111.13,20.93l18.74,0,0,26.91a10.15,10.15,0,0,0,.65,4.38,2.41,2.41,0,0,0,2.35,1.23c2.1,0,3.16-1.86,3.16-5.61L136,21l18.74,0,0,26.91a10,10,0,0,0,.68,4.39,2.48,2.48,0,0,0,2.38,1.23q3.1,0,3.11-5.61l0-26.91,18.75,0,0,30.77A19.89,19.89,0,0,1,174,66.07a18.34,18.34,0,0,1-13.74,5.87q-8.31,0-14.92-7-7.33,7-14.74,7a18.54,18.54,0,0,1-15-6.83q-4.45-5.36-4.45-15.49Z" style="fill:#fff"/><path d="M35.93,95.67l0,48.76-20.34,0,.05-48.76L0,95.63,0,76,51.49,76l0,19.64Z" style="fill:#fff"/><path d="M83.6,78.25l0,20A7.45,7.45,0,0,0,80,97.19q-5.11,0-5.12,7.81l0,23.71-18.75,0,0-27.32q0-10.82,5.93-17.25t15.79-6.43A38.36,38.36,0,0,1,83.6,78.25Z" style="fill:#fff"/><path d="M120.53,108.86l0,19.4a26.61,26.61,0,0,1-23-7,25.1,25.1,0,0,1-7.5-18.6,25.88,25.88,0,0,1,26.09-26q12.12,0,19.11,7.11t7,19.38l0,24.51-18.74,0,0-23.15a9.66,9.66,0,0,0-1.93-6.32,6.34,6.34,0,0,0-5.18-2.36A7.37,7.37,0,0,0,111,108.15a6.61,6.61,0,0,0,5,2A8.52,8.52,0,0,0,120.53,108.86Z" style="fill:#fff"/><path d="M191.81,62.91l18.09,4.88L199.07,108q-3,11.09-10.67,16.48a24.52,24.52,0,0,1-10.21,4.1,26.75,26.75,0,0,1-27.45-12.64,24.81,24.81,0,0,1-2.61-19.8,25.17,25.17,0,0,1,12.11-15.68,24.57,24.57,0,0,1,19.43-2.76c1.07.29,2.65.82,4.76,1.6l-5.37,19.93a7.48,7.48,0,0,0-4-2.94,6.75,6.75,0,0,0-5.37.76,7.06,7.06,0,0,0-3.34,4.42,6.66,6.66,0,0,0,.78,5.38,7.19,7.19,0,0,0,4.44,3.35q7,1.88,9.56-7.75Z" style="fill:#fff"/><path d="M235,78.25l0,20a7.41,7.41,0,0,0-3.55-1.1q-5.12,0-5.12,7.81l0,23.71-18.74,0,0-27.32q0-10.82,5.93-17.25t15.79-6.43A38.25,38.25,0,0,1,235,78.25Z" style="fill:#fff"/></g></g></g></svg>